<?xml version="1.0" standalone="no"?>
<!DOCTYPE svg PUBLIC "-//W3C//DTD SVG 20010904//EN"
 "http://www.w3.org/TR/2001/REC-SVG-20010904/DTD/svg10.dtd">
<svg version="1.0" xmlns="http://www.w3.org/2000/svg"
 width="150.000000pt" height="150.000000pt" viewBox="0 0 150.000000 150.000000"
 preserveAspectRatio="xMidYMid meet">

<g transform="translate(0.000000,150.000000) scale(0.100000,-0.100000)"
fill="#000000" stroke="none">
<path d="M1000 823 c-23 -4 -25 -8 -24 -52 1 -27 5 -54 9 -61 4 -7 -1 -13 -14
-17 -12 -3 -21 -9 -21 -13 0 -5 9 -6 20 -3 14 4 20 0 20 -11 0 -9 -8 -16 -20
-16 -11 0 -20 -4 -20 -9 0 -4 12 -6 26 -3 20 4 25 1 22 -9 -2 -8 -18 -15 -35
-17 -26 -3 -32 1 -36 20 -4 23 -4 23 -6 1 -1 -15 -9 -24 -23 -27 -35 -7 -62
-4 -76 7 -10 8 -16 7 -23 -6 -13 -22 -36 -22 -57 0 -16 16 -17 15 -20 -5 -7
-48 -32 -10 -32 51 0 17 5 27 15 27 8 0 15 -6 15 -12 0 -7 5 -5 11 5 16 27 26
20 35 -20 5 -26 8 -32 11 -18 14 75 23 83 46 39 l14 -27 6 25 c7 28 28 41 52
32 24 -9 19 -37 -5 -29 -16 5 -20 2 -20 -19 0 -27 15 -43 25 -26 3 5 1 10 -4
10 -6 0 -11 5 -11 10 0 6 9 10 20 10 15 0 20 7 20 24 0 18 7 26 23 29 12 2
-32 5 -98 6 -114 1 -121 2 -130 24 -7 14 -19 22 -35 22 -16 0 -28 -8 -35 -22
-9 -20 -17 -23 -73 -23 l-64 0 6 -37 c3 -21 11 -78 16 -128 6 -49 12 -91 14
-92 3 -3 170 15 201 22 11 2 25 14 30 27 14 32 68 37 88 8 13 -19 17 -20 115
-8 56 6 106 14 110 17 6 4 -15 234 -28 299 0 2 -25 1 -60 -5z m-320 -153 c0
-5 -5 -10 -11 -10 -14 0 -2 -52 14 -62 9 -6 8 -11 -3 -18 -19 -13 -47 -13 -55
0 -3 6 -1 10 4 10 17 0 13 57 -5 64 -8 3 -12 10 -9 16 8 13 65 13 65 0z"/>
</g>
</svg>
